<?xml version="1.0" standalone="no"?><!DOCTYPE svg PUBLIC "-//W3C//DTD SVG 1.1//EN" "http://www.w3.org/Graphics/SVG/1.1/DTD/svg11.dtd"><svg t="1629352595943" class="icon" viewBox="0 0 1024 1024" version="1.1" xmlns="http://www.w3.org/2000/svg" p-id="1607" xmlns:xlink="http://www.w3.org/1999/xlink" width="32" height="32"><defs><style type="text/css"></style></defs><path d="M940.75107555 206.90322015H118.66749155c-22.36962133 0-40.38959408-18.01997275-40.38959407-40.38959407s18.01997275-40.38959408 40.38959407-40.38959408H940.75107555c22.36962133 0 40.38959408 18.01997275 40.38959408 40.38959408s-18.01997275 40.38959408-40.38959408 40.38959407zM940.75107555 530.64135111H118.66749155c-22.36962133 0-40.38959408-18.01997275-40.38959407-40.38959408s18.01997275-40.38959408 40.38959407-40.38959406H940.75107555c22.36962133 0 40.38959408 18.01997275 40.38959408 40.38959406s-18.01997275 40.38959408-40.38959408 40.38959408zM940.75107555 887.93391408H118.66749155c-22.36962133 0-40.38959408-18.01997275-40.38959407-40.38959408s18.01997275-40.38959408 40.38959407-40.38959408H940.75107555c22.36962133 0 40.38959408 18.01997275 40.38959408 40.38959408s-18.01997275 40.38959408-40.38959408 40.38959408z" p-id="1608"></path></svg>