<svg t="1660731007984" viewBox="0 0 1024 1024" version="1.1" xmlns="http://www.w3.org/2000/svg" p-id="2279" width="32" height="32"><path d="M89.37457777 1017.93436445c6.35562667-4.23594667 14.82638222-8.47644445 19.06232889-14.82752001 298.68828445-298.68828445 597.37315555-597.37315555 893.93720888-896.05688889 6.35562667-4.23594667 10.59157333-10.59157333 14.83093334-16.94720001 2.11626667 6.35562667 4.23594667 12.71125333 4.23594666 19.06688001v912.99953777H108.43690666c-6.35107555 0-12.70670222-2.11512889-19.06232889-4.23480887z m639.73831111-206.12892446c59.31008-59.31121778 118.62584889-118.62698667 177.93706666-175.81738667-6.35107555-8.47644445-14.82638222-16.9472-25.41795555-31.77813332-50.83932445 52.96014222-99.56010667 103.79946667-150.39943111 154.63992888-29.65845333-29.65731555-57.19608889-57.19608889-82.61745778-84.73372443l-27.53877333 27.53763555c36.01408 36.01408 72.02247111 74.14328889 108.03655111 110.15167999z m0-300.15601778" p-id="2280"></path></svg>