<svg t="1667539125049" class="icon" viewBox="0 0 1024 1024" version="1.1" xmlns="http://www.w3.org/2000/svg" p-id="9286"><path d="M921.1 61.4H102.9c-45.5 0-82.4 36.9-82.4 82.4v736.3c0 45.5 36.9 82.4 82.4 82.4h818.2c45.5 0 82.4-36.9 82.4-82.4V143.8c0-45.5-36.9-82.4-82.4-82.4z m0.4 777.8c0 22.9-18.6 41.4-41.4 41.4H143.8c-22.9 0-41.4-18.6-41.4-41.4V184.8c0-22.9 18.6-41.4 41.4-41.4h736.3c22.9 0 41.4 18.6 41.4 41.4v654.4z" p-id="9287"></path><path d="M313.4 497.1c-11.1-5.4-24.9-10-42.1-14.1l-2.2-0.4c-0.9-0.3-1.7-0.4-3.4-0.8-12.8-2.9-22.9-5.7-30-8.3-5.9-2.2-10.6-5.5-14.4-9.9-3-3.5-4.4-8.5-4.4-15.6 0-10.9 3.2-18.6 10.1-24.4 7.8-6.5 19.4-9.8 34.6-9.8 8.5 0 17.1 1.9 25.5 5.5 8.7 3.8 17.7 9.5 26.6 17.1l8.9 7.6 33.3-54-8.8-7.4c-8.9-7.4-18.1-13.7-27.4-18.6-9.3-4.9-18.9-8.7-28.5-11.2-9.6-2.5-19.6-3.8-29.5-3.8-20.6 0-38.7 3.8-53.7 11.3-15.6 7.9-27.8 19.6-36.1 34.8-8.2 15.1-12.4 33.3-12.4 54.4 0 23.9 4.6 42.9 13.8 56.6 8.9 13.4 19.9 22.7 32.7 27.8 11.4 4.6 25.7 8.5 43.4 12l1.2 0.1c1.5 0.6 3 1.5 4 0.9 11.2 2.3 20.2 4.9 27 7.6 5.6 2.2 10 5.5 13.4 10 2.8 3.7 4.2 9.1 4.2 16.6 0 10.4-3.4 17.9-10.6 23.5-8.4 6.5-20.9 9.9-37.3 9.9-12.5 0-24.1-2.2-34.7-6.6-10.5-4.4-20.2-11.1-28.9-19.9l-8.5-8.5-36.3 51.8 8.2 8c9.1 8.9 18.9 16.4 29.2 22.3 10.3 5.9 21.6 10.4 33.6 13.4l16.6 4.1 20.8 0.3c21.3 0 39.9-3.8 55.2-11.1 16-7.7 28.6-19.3 37.2-34.3 8.6-15 13-33.1 13-54.2 0-22.2-4.2-40.3-12.6-53.8-8.1-13.2-18.4-22.9-30.7-28.9z m-46.6-2.2zM751.8 349h-57.9v330.3h187v-66.4H751.8zM619.9 619.8c0.6-1.2 1.4-2.2 2-3.4 9.5-19.2 14.3-41.4 14.3-65.9v-77c0-24.5-4.8-46.7-14.3-65.9-9.9-20-24.1-35.7-42.3-46.7-35.6-21.6-86.3-21.5-121.8 0-18.2 11-32.4 26.7-42.3 46.7-9.5 19.2-14.3 41.4-14.3 65.9v77c0 24.5 4.8 46.7 14.3 65.9 9.9 20 24.1 35.7 42.3 46.7 17.8 10.8 38.3 16.2 60.9 16.2s43.1-5.5 60.9-16.2c0.3-0.2 0.5-0.4 0.8-0.6l7.7 8.1c11 11.6 29 11.6 40 0s11-30.6 0-42.2l-8.2-8.6z m-135.1-6.5c-9.2-5.6-16.1-13.3-21.2-23.5-5.5-11.1-8.1-23.9-8.1-39.3v-77c0-15.4 2.7-28.2 8.1-39.3 5.1-10.3 12-17.9 21.2-23.5 9.6-5.8 20.7-8.6 33.9-8.6s24.3 2.8 33.9 8.6c9.2 5.5 16.1 13.2 21.2 23.5 5.5 11.1 8.1 23.9 8.1 39.3v77c0 9.5-1.4 17.7-3.5 25.5l-9-9.5c-11-11.6-29-11.6-40 0s-11 30.6 0 42.2l9.6 10.1c-17.8 5.3-39.1 3.6-54.2-5.5z" p-id="9288"></path></svg>